Coordinates
version=1
nRows=49
nColumns=12
inDegrees=yes

Units are S.I. units (second, meters, Newtons, ...)
Angles are in degrees

endheader
time	SC_y	SC_z	SC_x	AC_y	AC_z	AC_x	GH_y	GH_z	GH_yy	EL_x	PS_y
       0.0              -41.14           12.4          29.41          69.54         -11.21          1.866         -151.8          2.048          135.6          103.5          96.47
   0.03002              -41.13           12.4          29.41          69.53         -11.21          1.862         -151.8          2.046          135.5          103.5          96.46
   0.06004              -41.13          12.41          29.41          69.53          -11.2          1.859         -151.8          2.045          135.5          103.5          96.44
   0.09007              -41.13          12.41          29.41          69.52          -11.2          1.856         -151.8          2.044          135.5          103.5          96.43
    0.1201              -41.12          12.41          29.41          69.52          -11.2          1.852         -151.8          2.043          135.4          103.5          96.42
    0.1501              -41.12          12.41          29.41          69.51          -11.2          1.848         -151.8          2.041          135.4          103.5          96.41
    0.1801              -41.12          12.42          29.42          69.51          -11.2          1.844         -151.8           2.04          135.4          103.4          96.39
    0.2102              -41.11          12.42          29.42           69.5          -11.2          1.839         -151.8          2.038          135.3          103.4          96.38
    0.2402              -41.11          12.42          29.42           69.5          -11.2          1.834         -151.8          2.036          135.3          103.4          96.36
    0.2702               -41.1          12.43          29.42          69.49         -11.19          1.829         -151.8          2.034          135.2          103.4          96.34
    0.3002               -41.1          12.43          29.42          69.48         -11.19          1.823         -151.8          2.032          135.2          103.4          96.32
    0.3302              -41.09          12.43          29.42          69.47         -11.19          1.817         -151.8           2.03          135.1          103.3           96.3
    0.3603              -41.09          12.44          29.42          69.47         -11.19          1.811         -151.8          2.028          135.0          103.3          96.28
    0.3903              -41.08          12.44          29.42          69.46         -11.19          1.804         -151.8          2.025          135.0          103.3          96.26
    0.4203              -41.08          12.45          29.42          69.45         -11.18          1.796         -151.8          2.022          134.9          103.3          96.23
    0.4503              -41.07          12.45          29.42          69.44         -11.18          1.788         -151.8          2.019          134.8          103.2           96.2
    0.4804              -41.06          12.46          29.42          69.42         -11.18          1.779         -151.8          2.016          134.7          103.2          96.17
    0.5104              -41.05          12.47          29.42          69.41         -11.17          1.769         -151.8          2.012          134.6          103.2          96.14
    0.5404              -41.04          12.47          29.43           69.4         -11.17          1.758         -151.8          2.008          134.5          103.1           96.1
    0.5704              -41.03          12.48          29.43          69.38         -11.17          1.746         -151.8          2.004          134.4          103.1          96.07
    0.6004              -41.02          12.49          29.43          69.37         -11.16          1.734         -151.8          1.999          134.3          103.0          96.02
    0.6305              -41.01           12.5          29.43          69.35         -11.16          1.719         -151.8          1.994          134.2          103.0          95.97
    0.6605               -41.0          12.51          29.43          69.33         -11.15          1.704         -151.8          1.989          134.0          102.9          95.92
    0.6905              -40.98          12.52          29.43           69.3         -11.15          1.686         -151.8          1.982          133.8          102.8          95.86
    0.7205              -40.97          12.53          29.44          69.28         -11.14          1.667         -151.8          1.975          133.6          102.8           95.8
    0.7505              -40.95          12.54          29.44          69.25         -11.13          1.645         -151.9          1.967          133.4          102.7          95.73
    0.7806              -40.93          12.56          29.44          69.22         -11.13          1.621         -151.9          1.959          133.2          102.6          95.64
    0.8106               -40.9          12.58          29.44          69.18         -11.12          1.594         -151.9          1.949          132.9          102.5          95.55
    0.8406              -40.88           12.6          29.45          69.14         -11.11          1.564         -151.9          1.938          132.6          102.4          95.45
    0.8706              -40.85          12.62          29.45           69.1         -11.09          1.529         -151.9          1.925          132.3          102.2          95.33
    0.9007              -40.81          12.64          29.46          69.05         -11.08          1.489         -151.9           1.91          131.9          102.1           95.2
    0.9307              -40.77          12.67          29.46          68.99         -11.07          1.443         -151.9          1.894          131.5          101.9          95.05
    0.9607              -40.73          12.71          29.47          68.92         -11.05          1.391         -152.0          1.875          131.0          101.7          94.87
    0.9907              -40.67          12.75          29.48          68.84         -11.03           1.33         -152.0          1.852          130.4          101.4          94.66
     1.021              -40.61          12.79          29.49          68.75         -11.01          1.258         -152.0          1.826          129.7          101.2          94.42
     1.051              -40.54          12.85           29.5          68.64         -10.98          1.174         -152.0          1.796          128.9          100.8          94.14
     1.081              -40.45          12.91          29.51          68.51         -10.94          1.074         -152.1          1.759          127.9          100.4           93.8
     1.111              -40.35          12.99          29.52          68.35          -10.9         0.9534         -152.1          1.715          126.7          99.97           93.4
     1.141              -40.22          13.08          29.54          68.16         -10.86          0.808         -152.2          1.663          125.3           99.4          92.91
     1.171              -40.07           13.2          29.56          67.93          -10.8         0.6305         -152.3          1.598          123.6          98.71          92.31
     1.201              -39.88          13.34          29.59          67.65         -10.72         0.4113         -152.4          1.518          121.4          97.85          91.57
     1.231              -39.65          13.51          29.62          67.29         -10.63          0.138         -152.5          1.419          118.8          96.79          90.65
     1.261              -39.35          13.74          29.66          66.84         -10.52        -0.2063         -152.6          1.293          115.4          95.44          89.49
     1.291              -38.97          14.02          29.71          66.27         -10.38         -0.644         -152.8          1.134          111.2          93.73          88.02
     1.321              -38.49          14.38          29.78          65.54         -10.19         -1.204         -153.1         0.9301          105.8          91.55          86.13
     1.351              -37.87          14.84          29.87          64.61         -9.952         -1.923         -153.4         0.6684          98.77          88.74          83.71
     1.381              -37.07          15.43          29.97          63.41         -9.648         -2.841         -153.7         0.3341          89.85          85.16          80.62
     1.411              -36.08          16.17          30.11          61.91         -9.266         -3.996         -154.2       -0.08625          78.63          80.65          76.74
     1.441              -34.86          17.08          30.28          60.08           -8.8         -5.403         -154.8        -0.5985          64.96          75.15           72.0
